<?xml version="1.0" encoding="UTF-8"?>
<svg width="24px" height="24px" viewBox="0 0 24 24" version="1.1" xmlns="http://www.w3.org/2000/svg" xmlns:xlink="http://www.w3.org/1999/xlink">
    <!-- Generator: Sketch 54.1 (76490) - https://sketchapp.com -->
    <title>2703069_phone_cell_contact_telephone_icon</title>
    <desc>Created with Sketch.</desc>
    <g id="final" stroke="none" stroke-width="1" fill="none" fill-rule="evenodd">
        <g id="add_claim-1" transform="translate(-303.000000, -125.000000)" fill="#1D1D1B" fill-rule="nonzero">
            <g id="2703069_phone_cell_contact_telephone_icon" transform="translate(303.000000, 125.000000)">
                <path d="M23.4970703,18.2363281 C23.09375,17.578125 22.4677734,16.8115234 21.7324219,16.0771484 C21.2001953,15.5449218 19.3730469,13.8095703 18.1982422,13.8095703 C17.8212891,13.8095703 17.5820313,13.9707031 17.4482422,14.1044922 L15.8837891,15.6679688 C15.8574219,15.694336 15.7734375,15.7246094 15.6220703,15.7246094 C14.7539062,15.7246094 12.9130859,14.7636719 11.0742187,12.9257813 C8.6220703,10.4726563 8.0322265,8.4160157 8.3320312,8.116211 L9.8945312,6.5527344 C10.0292968,6.4179688 10.1904296,6.178711 10.1904296,5.8027344 C10.1914062,4.6269531 8.455078,2.7998047 7.9228515,2.2675781 C7.3916016,1.7353516 5.5654297,0 4.3886719,0 C4.0126953,0 3.7734375,0.1601563 3.6386719,0.2949219 L0.5107422,3.4228516 C-0.4130859,4.3457031 -0.0761719,6.1513672 1.5126953,8.7890625 C2.8916016,11.078125 5.0742188,13.7617188 7.65625,16.34375 C12.2363281,20.9238281 16.8740234,24.0009766 19.1962891,24 C19.7744141,24 20.2382813,23.828125 20.5771485,23.4892578 L23.7050782,20.3613281 C24.3818359,19.6845703 23.7158203,18.5947266 23.4970703,18.2363281 Z M19.5166016,22.4287109 C19.4814453,22.4628906 19.3798828,22.5 19.1962891,22.5 C17.6152344,22.5 13.4052735,19.9707031 8.7167969,15.2832031 C6.2177735,12.7841797 4.116211,10.203125 2.7978516,8.0146484 C1.3125,5.5498047 1.4521484,4.6025391 1.5712891,4.4833984 L4.515625,1.5390625 C4.8994141,1.6875 5.7890625,2.2539063 6.8623047,3.328125 C7.9355469,4.4023437 8.5029297,5.2910156 8.6513672,5.6748047 L7.2714844,7.0556641 C5.8330078,8.4941407 7.6845703,11.65625 10.0136719,13.9863282 C12.0117188,15.9843751 14.1611328,17.2246095 15.6220703,17.2246095 C16.3046875,17.2246095 16.7177734,16.9550782 16.9443359,16.7285157 L18.3251953,15.3486329 C18.7089844,15.4970704 19.5976562,16.0644532 20.671875,17.1376954 C21.7451172,18.2109376 22.3125,19.100586 22.4609375,19.4843751 L19.5166016,22.4287109 Z" id="Shape"></path>
            </g>
        </g>
    </g>
</svg>