<?xml version="1.0" encoding="UTF-8"?>
<svg width="15px" height="12px" viewBox="0 0 15 12" version="1.1" xmlns="http://www.w3.org/2000/svg" xmlns:xlink="http://www.w3.org/1999/xlink">
    <!-- Generator: Sketch 54.1 (76490) - https://sketchapp.com -->
    <title>4850470_card_employee_id_identification_identity_icon</title>
    <desc>Created with Sketch.</desc>
    <g id="final" stroke="none" stroke-width="1" fill="none" fill-rule="evenodd">
        <g id="signin_view-1" transform="translate(-55.000000, -409.000000)" fill="#A8B6C8" fill-rule="nonzero">
            <g id="4850470_card_employee_id_identification_identity_icon" transform="translate(55.000000, 409.000000)">
                <path d="M0,12 L15,12 L15,0 L0,0 L0,12 Z M9,3 L12.75,3 L12.75,4.5 L9,4.5 L9,3 Z M9,5.25 L12.75,5.25 L12.75,6.75 L9,6.75 L9,5.25 Z M9,8.25 L12.75,8.25 L12.75,9.75 L9,9.75 L9,8.25 Z M2.25,8.25 C2.25353284,7.30308097 2.70392666,6.41341415 3.465,5.85 C3.16754007,5.46242054 3.00431817,4.98855051 3,4.5 C3,3.25735931 4.00735931,2.25 5.25,2.25 C6.49264069,2.25 7.5,3.25735931 7.5,4.5 C7.49568183,4.98855051 7.33245993,5.46242054 7.035,5.85 C7.79607334,6.41341415 8.24646716,7.30308097 8.25,8.25 L8.25,9.75 L2.25,9.75 L2.25,8.25 Z" id="Shape"></path>
            </g>
        </g>
    </g>
</svg>