<?xml version="1.0" encoding="UTF-8"?>
<svg width="22px" height="15px" viewBox="0 0 22 15" version="1.1" xmlns="http://www.w3.org/2000/svg" xmlns:xlink="http://www.w3.org/1999/xlink">
    <!-- Generator: Sketch 54.1 (76490) - https://sketchapp.com -->
    <title>6351969_eye_key_look_password_security_icon</title>
    <desc>Created with Sketch.</desc>
    <g id="final" stroke="none" stroke-width="1" fill="none" fill-rule="evenodd" opacity="0.275111607">
        <g id="signin_view-2" transform="translate(-311.000000, -350.000000)" fill="#000000">
            <g id="Group" transform="translate(28.000000, 204.000000)">
                <g id="6351969_eye_key_look_password_security_icon" transform="translate(282.947368, 145.964912)">
                    <path d="M13.7410462,8.44561092 C13.9368205,8.00714854 14.0461949,7.51913918 14.0461949,7.29954308 C14.0461949,5.39616062 12.5499077,3.85290604 10.7044103,3.85290604 C8.85899487,3.85290604 7.3627241,5.39616062 7.3627241,7.29954308 C7.3627241,9.20284444 9.0336,10.4515743 10.7044103,10.4515743 C11.7732103,10.4515743 12.7245128,9.93493957 13.3347282,9.13051072 C13.4946462,8.92015906 13.6317538,8.69042651 13.7410462,8.44561092 Z M10.7044103,8.7282963 C11.1221333,8.7282963 11.504,8.57008655 11.7976615,8.3084039 C12.1517949,7.99287641 12.3076923,7.52586979 12.3076923,7.29954308 C12.3076923,6.34785185 11.6279795,5.57618402 10.7044103,5.57618402 C9.78092308,5.57618402 9.02564103,6.34655439 9.02564103,7.29824561 C9.02564103,7.95541209 9.78092308,8.7282963 10.7044103,8.7282963 Z" id="Shape"></path>
                    <path d="M0.075585641,7.51913918 C0.0625312821,7.50316413 0.08864,7.53592515 0.075585641,7.51913918 C-0.0265517949,7.38104016 -0.0239811282,7.21682963 0.0760451282,7.07710877 C0.0833723077,7.06689123 0.0908389744,7.05626823 0.0984041026,7.04540195 C3.10235897,2.71104686 6.82752821,0.40545809 10.6783179,0.40545809 C14.5251282,0.40545809 18.2469744,2.70484335 21.2476718,7.03048109 C21.3046154,7.11254581 21.3333333,7.19688109 21.3333333,7.29784016 C21.3333333,7.40374581 21.2999385,7.49278441 21.240041,7.5789037 C18.2401641,11.8963025 14.5216,14.1910331 10.6783179,14.1910331 C6.81773949,14.1910331 3.08280615,11.8744889 0.075585641,7.51913918 Z M2.41156103,6.77317739 C2.16459487,7.07662222 2.16459487,7.518977 2.41155282,7.82250292 C4.98393436,10.983292 7.88036923,12.4677552 10.6783179,12.4677552 C13.4763487,12.4677552 16.372759,10.983292 18.9451487,7.82250292 C19.1921231,7.518977 19.1921231,7.07662222 18.9451487,6.77317739 C16.372759,3.61242885 13.4763487,2.12876039 10.6783179,2.12876039 C7.88036923,2.12876039 4.98393436,3.61242885 2.41156103,6.77317739 Z" id="Shape"></path>
                </g>
            </g>
        </g>
    </g>
</svg>