<?xml version="1.0" encoding="UTF-8"?>
<svg width="19px" height="12px" viewBox="0 0 19 12" version="1.1" xmlns="http://www.w3.org/2000/svg" xmlns:xlink="http://www.w3.org/1999/xlink">
    <!-- Generator: Sketch 54.1 (76490) - https://sketchapp.com -->
    <title>Shape</title>
    <desc>Created with Sketch.</desc>
    <g id="final" stroke="none" stroke-width="1" fill="none" fill-rule="evenodd">
        <g id="forgot_password" transform="translate(-30.000000, -60.000000)" fill="#FFFFFF" fill-rule="nonzero">
            <path d="M48.1774982,65.162744 L32.8079819,65.162744 L36.4753727,61.4292173 C36.7966595,61.1023512 36.7966595,60.5721124 36.4753727,60.2452947 C36.154086,59.9182351 35.6332062,59.9182351 35.3123944,60.2452947 L30.2409651,65.407942 C29.9196783,65.7348081 29.9196783,66.2650952 30.2409651,66.5918646 L35.3123944,71.7547537 C35.4729903,71.9183318 35.6834607,72 35.8938836,72 C36.1043065,72 36.3147769,71.9183318 36.4753727,71.7547537 C36.7966595,71.4278876 36.7966595,70.8976488 36.4753727,70.5708794 L32.8079819,66.8371593 L48.1774982,66.8371593 C48.6316887,66.8371593 49,66.4622786 49,65.9999275 C49,65.5375763 48.6317362,65.162744 48.1774982,65.162744 Z" id="Shape"></path>
        </g>
    </g>
</svg>