<?xml version="1.0" encoding="UTF-8"?>
<svg width="94px" height="100px" viewBox="0 0 94 100" version="1.1" xmlns="http://www.w3.org/2000/svg" xmlns:xlink="http://www.w3.org/1999/xlink">
    <!-- Generator: Sketch 54.1 (76490) - https://sketchapp.com -->
    <title>2620512_employee_job_list_seeker_unemployee_icon</title>
    <desc>Created with Sketch.</desc>
    <g id="final" stroke="none" stroke-width="1" fill="none" fill-rule="evenodd">
        <g id="Cliam-Assessment_Step4-Copy" transform="translate(-141.000000, -356.000000)" fill-rule="nonzero">
            <g id="2620512_employee_job_list_seeker_unemployee_icon" transform="translate(141.000000, 356.000000)">
                <path d="M15.8888987,97.9338843 L75.7797357,97.9338843 C77.5146184,97.9316079 78.92045,96.5287427 78.9227313,94.7975207 L78.9227313,13.9586777 L71.8209692,13.9586777 C71.3635703,13.9586777 70.9927753,13.5886651 70.9927753,13.1322314 L70.9927753,6.02892562 L15.8888987,6.02892562 C14.1540159,6.03120205 12.7481843,7.43406725 12.7459031,9.16528926 L12.7459031,94.7975207 C12.7481843,96.5287427 14.1540159,97.9316079 15.8888987,97.9338843 L15.8888987,97.9338843 Z M21.1810573,29.8140496 L17.8061674,29.8140496 C17.3487686,29.8140496 16.9779736,29.444037 16.9779736,28.9876033 C16.9779736,28.5311696 17.3487686,28.161157 17.8061674,28.161157 L21.1976211,28.161157 C21.65502,28.161157 22.025815,28.5311696 22.025815,28.9876033 C22.025815,29.444037 21.65502,29.8140496 21.1976211,29.8140496 L21.1810573,29.8140496 Z M17.8061674,36.0909091 L21.1976211,36.0909091 C21.65502,36.0909091 22.025815,36.4609217 22.025815,36.9173554 C22.025815,37.373789 21.65502,37.7438017 21.1976211,37.7438017 L17.8061674,37.7438017 C17.3487686,37.7438017 16.9779736,37.373789 16.9779736,36.9173554 C16.9779736,36.4609217 17.3487686,36.0909091 17.8061674,36.0909091 Z M17.8061674,44.0206612 L21.1976211,44.0206612 C21.65502,44.0206612 22.025815,44.3906738 22.025815,44.8471074 C22.025815,45.3035411 21.65502,45.6735537 21.1976211,45.6735537 L17.8061674,45.6735537 C17.3487686,45.6735537 16.9779736,45.3035411 16.9779736,44.8471074 C16.9779736,44.3906738 17.3487686,44.0206612 17.8061674,44.0206612 Z M17.8061674,51.9504132 L21.1976211,51.9504132 C21.65502,51.9504132 22.025815,52.3204258 22.025815,52.7768595 C22.025815,53.2332932 21.65502,53.6033058 21.1976211,53.6033058 L17.8061674,53.6033058 C17.3487686,53.6033058 16.9779736,53.2332932 16.9779736,52.7768595 C16.9779736,52.3204258 17.3487686,51.9504132 17.8061674,51.9504132 Z M17.8061674,59.8801653 L21.1976211,59.8801653 C21.65502,59.8801653 22.025815,60.2501779 22.025815,60.7066116 C22.025815,61.1630452 21.65502,61.5330579 21.1976211,61.5330579 L17.8061674,61.5330579 C17.3487686,61.5330579 16.9779736,61.1630452 16.9779736,60.7066116 C16.9779736,60.2501779 17.3487686,59.8801653 17.8061674,59.8801653 Z M17.8061674,67.8099174 L21.1976211,67.8099174 C21.65502,67.8099174 22.025815,68.17993 22.025815,68.6363636 C22.025815,69.0927973 21.65502,69.4628099 21.1976211,69.4628099 L17.8061674,69.4628099 C17.3487686,69.4628099 16.9779736,69.0927973 16.9779736,68.6363636 C16.9779736,68.17993 17.3487686,67.8099174 17.8061674,67.8099174 Z M17.8061674,75.7396694 L21.1976211,75.7396694 C21.65502,75.7396694 22.025815,76.109682 22.025815,76.5661157 C22.025815,77.0225494 21.65502,77.392562 21.1976211,77.392562 L17.8061674,77.392562 C17.3487686,77.392562 16.9779736,77.0225494 16.9779736,76.5661157 C16.9779736,76.109682 17.3487686,75.7396694 17.8061674,75.7396694 Z M17.8061674,83.6694215 L21.1976211,83.6694215 C21.65502,83.6694215 22.025815,84.0394341 22.025815,84.4958678 C22.025815,84.9523014 21.65502,85.322314 21.1976211,85.322314 L17.8061674,85.322314 C17.3487686,85.322314 16.9779736,84.9523014 16.9779736,84.4958678 C16.9779736,84.0394341 17.3487686,83.6694215 17.8061674,83.6694215 Z M17.8061674,91.5991736 L21.1976211,91.5991736 C21.65502,91.5991736 22.025815,91.9691862 22.025815,92.4256198 C22.025815,92.8820535 21.65502,93.2520661 21.1976211,93.2520661 L17.8061674,93.2520661 C17.3487686,93.2520661 16.9779736,92.8820535 16.9779736,92.4256198 C16.9779736,91.9691862 17.3487686,91.5991736 17.8061674,91.5991736 Z M40.9127753,29.822314 L24.572511,29.822314 C24.1151122,29.822314 23.7443172,29.4523014 23.7443172,28.9958678 C23.7443172,28.5394341 24.1151122,28.1694215 24.572511,28.1694215 L40.9003524,28.1694215 C41.3577512,28.1694215 41.7285463,28.5394341 41.7285463,28.9958678 C41.7285463,29.4523014 41.3577512,29.822314 40.9003524,29.822314 L40.9127753,29.822314 Z M24.572511,36.0909091 L40.9003524,36.0909091 C41.3577512,36.0909091 41.7285463,36.4609217 41.7285463,36.9173554 C41.7285463,37.373789 41.3577512,37.7438017 40.9003524,37.7438017 L24.572511,37.7438017 C24.1151122,37.7438017 23.7443172,37.373789 23.7443172,36.9173554 C23.7443172,36.4609217 24.1151122,36.0909091 24.572511,36.0909091 Z M24.572511,44.0206612 L40.9003524,44.0206612 C41.3577512,44.0206612 41.7285463,44.3906738 41.7285463,44.8471074 C41.7285463,45.3035411 41.3577512,45.6735537 40.9003524,45.6735537 L24.572511,45.6735537 C24.1151122,45.6735537 23.7443172,45.3035411 23.7443172,44.8471074 C23.7443172,44.3906738 24.1151122,44.0206612 24.572511,44.0206612 Z M24.572511,51.9504132 L40.9003524,51.9504132 C41.3577512,51.9504132 41.7285463,52.3204258 41.7285463,52.7768595 C41.7285463,53.2332932 41.3577512,53.6033058 40.9003524,53.6033058 L24.572511,53.6033058 C24.1151122,53.6033058 23.7443172,53.2332932 23.7443172,52.7768595 C23.7443172,52.3204258 24.1151122,51.9504132 24.572511,51.9504132 Z M24.572511,59.8801653 L40.9003524,59.8801653 C41.3577512,59.8801653 41.7285463,60.2501779 41.7285463,60.7066116 C41.7285463,61.1630452 41.3577512,61.5330579 40.9003524,61.5330579 L24.572511,61.5330579 C24.1151122,61.5330579 23.7443172,61.1630452 23.7443172,60.7066116 C23.7443172,60.2501779 24.1151122,59.8801653 24.572511,59.8801653 Z M24.572511,67.8099174 L40.9003524,67.8099174 C41.3577512,67.8099174 41.7285463,68.17993 41.7285463,68.6363636 C41.7285463,69.0927973 41.3577512,69.4628099 40.9003524,69.4628099 L24.572511,69.4628099 C24.1151122,69.4628099 23.7443172,69.0927973 23.7443172,68.6363636 C23.7443172,68.17993 24.1151122,67.8099174 24.572511,67.8099174 Z M24.572511,75.7396694 L40.9003524,75.7396694 C41.3577512,75.7396694 41.7285463,76.109682 41.7285463,76.5661157 C41.7285463,77.0225494 41.3577512,77.392562 40.9003524,77.392562 L24.572511,77.392562 C24.1151122,77.392562 23.7443172,77.0225494 23.7443172,76.5661157 C23.7443172,76.109682 24.1151122,75.7396694 24.572511,75.7396694 Z M24.572511,83.6694215 L40.9003524,83.6694215 C41.3577512,83.6694215 41.7285463,84.0394341 41.7285463,84.4958678 C41.7285463,84.9523014 41.3577512,85.322314 40.9003524,85.322314 L24.572511,85.322314 C24.1151122,85.322314 23.7443172,84.9523014 23.7443172,84.4958678 C23.7443172,84.0394341 24.1151122,83.6694215 24.572511,83.6694215 Z M24.572511,91.5991736 L40.9003524,91.5991736 C41.3577512,91.5991736 41.7285463,91.9691862 41.7285463,92.4256198 C41.7285463,92.8820535 41.3577512,93.2520661 40.9003524,93.2520661 L24.572511,93.2520661 C24.1151122,93.2520661 23.7443172,92.8820535 23.7443172,92.4256198 C23.7443172,91.9691862 24.1151122,91.5991736 24.572511,91.5991736 Z M40.0721586,17.161157 C40.081299,14.5548097 42.2044228,12.4484828 44.8162903,12.4545583 C47.4281578,12.4606337 49.5414181,14.5768148 49.5383819,17.1831763 C49.5353458,19.7895379 47.4171609,21.9008105 44.8052863,21.9008264 C43.5477857,21.8986365 42.3426611,21.3980491 41.455027,20.5091883 C40.5673929,19.6203274 40.0699602,18.4160042 40.0721586,17.161157 Z M48.7143612,91.5909091 L52.105815,91.5909091 C52.5632138,91.5909091 52.9340088,91.9609217 52.9340088,92.4173554 C52.9340088,92.873789 52.5632138,93.2438017 52.105815,93.2438017 L48.7143612,93.2438017 C48.2569624,93.2438017 47.8861674,92.873789 47.8861674,92.4173554 C47.8861674,91.9609217 48.2569624,91.5909091 48.7143612,91.5909091 Z M52.105815,85.3140496 L48.7143612,85.3140496 C48.2569624,85.3140496 47.8861674,84.944037 47.8861674,84.4876033 C47.8861674,84.0311696 48.2569624,83.661157 48.7143612,83.661157 L52.105815,83.661157 C52.5632138,83.661157 52.9340088,84.0311696 52.9340088,84.4876033 C52.9340088,84.944037 52.5632138,85.3140496 52.105815,85.3140496 Z M52.105815,77.3842975 L48.7143612,77.3842975 C48.2569624,77.3842975 47.8861674,77.0142849 47.8861674,76.5578512 C47.8861674,76.1014176 48.2569624,75.731405 48.7143612,75.731405 L52.105815,75.731405 C52.5632138,75.731405 52.9340088,76.1014176 52.9340088,76.5578512 C52.9340088,77.0142849 52.5632138,77.3842975 52.105815,77.3842975 Z M52.105815,69.4545455 L48.7143612,69.4545455 C48.2569624,69.4545455 47.8861674,69.0845329 47.8861674,68.6280992 C47.8861674,68.1716655 48.2569624,67.8016529 48.7143612,67.8016529 L52.105815,67.8016529 C52.5632138,67.8016529 52.9340088,68.1716655 52.9340088,68.6280992 C52.9340088,69.0845329 52.5632138,69.4545455 52.105815,69.4545455 Z M52.105815,61.5247934 L48.7143612,61.5247934 C48.2569624,61.5247934 47.8861674,61.1547808 47.8861674,60.6983471 C47.8861674,60.2419134 48.2569624,59.8719008 48.7143612,59.8719008 L52.105815,59.8719008 C52.5632138,59.8719008 52.9340088,60.2419134 52.9340088,60.6983471 C52.9340088,61.1547808 52.5632138,61.5247934 52.105815,61.5247934 Z M52.105815,53.5950413 L48.7143612,53.5950413 C48.2569624,53.5950413 47.8861674,53.2250287 47.8861674,52.768595 C47.8861674,52.3121614 48.2569624,51.9421488 48.7143612,51.9421488 L52.105815,51.9421488 C52.5632138,51.9421488 52.9340088,52.3121614 52.9340088,52.768595 C52.9340088,53.2250287 52.5632138,53.5950413 52.105815,53.5950413 Z M52.105815,45.6652893 L48.7143612,45.6652893 C48.2569624,45.6652893 47.8861674,45.2952767 47.8861674,44.838843 C47.8861674,44.3824093 48.2569624,44.0123967 48.7143612,44.0123967 L52.105815,44.0123967 C52.5632138,44.0123967 52.9340088,44.3824093 52.9340088,44.838843 C52.9340088,45.2952767 52.5632138,45.6652893 52.105815,45.6652893 Z M52.105815,37.7355372 L48.7143612,37.7355372 C48.2569624,37.7355372 47.8861674,37.3655246 47.8861674,36.9090909 C47.8861674,36.4526572 48.2569624,36.0826446 48.7143612,36.0826446 L52.105815,36.0826446 C52.5632138,36.0826446 52.9340088,36.4526572 52.9340088,36.9090909 C52.9340088,37.3655246 52.5632138,37.7355372 52.105815,37.7355372 Z M52.105815,29.8057851 L48.7143612,29.8057851 C48.2569624,29.8057851 47.8861674,29.4357725 47.8861674,28.9793388 C47.8861674,28.5229052 48.2569624,28.1528926 48.7143612,28.1528926 L52.105815,28.1528926 C52.5632138,28.1528926 52.9340088,28.5229052 52.9340088,28.9793388 C52.9340088,29.4357725 52.5632138,29.8057851 52.105815,29.8057851 Z M71.8251101,29.8057851 L55.4889868,29.8057851 C55.031588,29.8057851 54.660793,29.4357725 54.660793,28.9793388 C54.660793,28.5229052 55.031588,28.1528926 55.4889868,28.1528926 L71.8168282,28.1528926 C72.274227,28.1528926 72.645022,28.5229052 72.645022,28.9793388 C72.645022,29.4357725 72.274227,29.8057851 71.8168282,29.8057851 L71.8251101,29.8057851 Z M55.4889868,36.0909091 L71.8168282,36.0909091 C72.274227,36.0909091 72.645022,36.4609217 72.645022,36.9173554 C72.645022,37.373789 72.274227,37.7438017 71.8168282,37.7438017 L55.4889868,37.7438017 C55.031588,37.7438017 54.660793,37.373789 54.660793,36.9173554 C54.660793,36.4609217 55.031588,36.0909091 55.4889868,36.0909091 Z M55.4889868,44.0206612 L71.8168282,44.0206612 C72.274227,44.0206612 72.645022,44.3906738 72.645022,44.8471074 C72.645022,45.3035411 72.274227,45.6735537 71.8168282,45.6735537 L55.4889868,45.6735537 C55.031588,45.6735537 54.660793,45.3035411 54.660793,44.8471074 C54.660793,44.3906738 55.031588,44.0206612 55.4889868,44.0206612 Z M55.4889868,51.9504132 L71.8168282,51.9504132 C72.274227,51.9504132 72.645022,52.3204258 72.645022,52.7768595 C72.645022,53.2332932 72.274227,53.6033058 71.8168282,53.6033058 L55.4889868,53.6033058 C55.031588,53.6033058 54.660793,53.2332932 54.660793,52.7768595 C54.660793,52.3204258 55.031588,51.9504132 55.4889868,51.9504132 Z M55.4889868,59.8801653 L71.8168282,59.8801653 C72.274227,59.8801653 72.645022,60.2501779 72.645022,60.7066116 C72.645022,61.1630452 72.274227,61.5330579 71.8168282,61.5330579 L55.4889868,61.5330579 C55.031588,61.5330579 54.660793,61.1630452 54.660793,60.7066116 C54.660793,60.2501779 55.031588,59.8801653 55.4889868,59.8801653 Z M55.4889868,67.8099174 L71.8168282,67.8099174 C72.274227,67.8099174 72.645022,68.17993 72.645022,68.6363636 C72.645022,69.0927973 72.274227,69.4628099 71.8168282,69.4628099 L55.4889868,69.4628099 C55.031588,69.4628099 54.660793,69.0927973 54.660793,68.6363636 C54.660793,68.17993 55.031588,67.8099174 55.4889868,67.8099174 Z M55.4889868,75.7396694 L71.8168282,75.7396694 C72.274227,75.7396694 72.645022,76.109682 72.645022,76.5661157 C72.645022,77.0225494 72.274227,77.392562 71.8168282,77.392562 L55.4889868,77.392562 C55.031588,77.392562 54.660793,77.0225494 54.660793,76.5661157 C54.660793,76.109682 55.031588,75.7396694 55.4889868,75.7396694 Z M55.4889868,83.6694215 L71.8168282,83.6694215 C72.274227,83.6694215 72.645022,84.0394341 72.645022,84.4958678 C72.645022,84.9523014 72.274227,85.322314 71.8168282,85.322314 L55.4889868,85.322314 C55.031588,85.322314 54.660793,84.9523014 54.660793,84.4958678 C54.660793,84.0394341 55.031588,83.6694215 55.4889868,83.6694215 Z M55.4889868,91.5991736 L71.8168282,91.5991736 C72.274227,91.5991736 72.645022,91.9691862 72.645022,92.4256198 C72.645022,92.8820535 72.274227,93.2520661 71.8168282,93.2520661 L55.4889868,93.2520661 C55.031588,93.2520661 54.660793,92.8820535 54.660793,92.4256198 C54.660793,91.9691862 55.031588,91.5991736 55.4889868,91.5991736 Z" id="Shape" fill="#EFFAFE"></path>
                <path d="M76.8688106,13.9586777 L76.8688106,94.7975207 C76.8677169,95.631868 76.5339545,96.4314867 75.9411821,97.0199073 C75.3484097,97.6083279 74.5453569,97.9371785 73.7092511,97.9339088 L75.7797357,97.9338843 C77.5146184,97.9316079 78.92045,96.5287427 78.9227313,94.7975207 L78.9227313,13.9586777 L76.8688106,13.9586777 Z" id="Path" fill="#E4EBED"></path>
                <polygon id="Path" fill="#EFFAFE" points="77.7674009 12.3057851 72.649163 7.19834711 72.649163 12.3057851"></polygon>
                <path d="M71.978326,4.39256198 L72.0155947,4.19008264 L72.0155947,4.19008264 L71.982467,4.39256198 C72.1375751,4.43206341 72.2800715,4.51027105 72.3965639,4.61983471 L80.3348018,12.5495868 C80.4860084,12.7067306 80.5731135,12.9144579 80.5791189,13.1322314 L80.5791189,93.8760331 L80.8607048,93.768595 C82.0832553,93.3038171 82.8930215,92.1360753 82.8980617,90.8305785 L82.8980617,5.20247934 C82.8958092,3.47607806 81.4975183,2.07520057 79.767489,2.0661157 L19.876652,2.0661157 C18.5683946,2.07114521 17.3981837,2.87920279 16.9324229,4.09917355 L16.8247577,4.38016529 L71.8209692,4.38016529 C71.8736973,4.3792888 71.9263889,4.38343988 71.978326,4.39256198 Z" id="Path" fill="#EFFAFE"></path>
                <ellipse id="Oval" fill="#55CECA" cx="44.8052863" cy="17.161157" rx="3.07674009" ry="3.07024793"></ellipse>
                <path d="M44.8052863,14.0909091 C44.5252203,14.0915284 44.2465614,14.1304583 43.9770925,14.2066116 C45.311206,14.5722846 46.23587,15.7826174 46.23587,17.1632231 C46.23587,18.5438289 45.311206,19.7541616 43.9770925,20.1198347 C45.1317014,20.4392095 46.3670917,20.0606743 47.1431241,19.1497327 C47.9191565,18.2387911 48.0946663,16.9611487 47.5929168,15.8754181 C47.0911674,14.7896876 46.0034298,14.0933695 44.8052863,14.0909091 L44.8052863,14.0909091 Z" id="Path" fill="#D84936"></path>
                <path d="M13.8184141,99.7933884 L75.7797357,99.7933884 C78.1802891,99.7891329 80.2411247,98.0878099 80.6950661,95.7355372 C83.0523128,95.2825537 84.7572332,93.2260666 84.7614978,90.8305785 L84.7614978,5.20247934 C84.756966,2.45004731 82.5257214,0.217972165 79.767489,0.20661157 L17.8061674,0.20661157 C15.4009371,0.204928914 13.3332425,1.90761097 12.8784141,4.26446281 C10.5211674,4.71744634 8.81624694,6.77393342 8.81198238,9.16942149 L8.81198238,94.7975207 C8.81654193,97.5547754 11.055329,99.7888385 13.8184141,99.7933884 L13.8184141,99.7933884 Z M17.8061674,2.27272727 L79.767489,2.27272727 C81.3880221,2.2750033 82.7011553,3.58536565 82.7034361,5.20247934 L82.7034361,90.8305785 C82.7019857,92.0502013 81.9455917,93.1421094 80.8027313,93.5743802 L80.8027313,13.1322314 C80.8009953,12.858503 80.6925817,12.5961918 80.5004405,12.4008264 L72.5539207,4.47520661 C72.3574194,4.28456598 72.0950154,4.1765712 71.8209692,4.17355372 L15.044141,4.17355372 C15.4775782,3.02723349 16.5783761,2.26966444 17.8061674,2.27272727 Z M77.2663436,12.0991736 L72.8562115,12.0991736 L72.8562115,7.69834711 L77.2663436,12.0991736 Z M10.882467,9.16942149 C10.8847478,7.5523078 12.197881,6.24194545 13.8184141,6.23966942 L70.7857269,6.23966942 L70.7857269,13.1322314 C70.7857269,13.7027735 71.2492206,14.1652893 71.8209692,14.1652893 L78.7322467,14.1652893 L78.7322467,94.7975207 C78.7311534,95.5770714 78.419205,96.3241381 77.8652615,96.8738115 C77.3113181,97.423485 76.5609286,97.7305674 75.7797357,97.7272727 L13.8184141,97.7272727 C12.197881,97.7249967 10.8847478,96.4146343 10.882467,94.7975207 L10.882467,9.16942149 Z" id="Shape" fill="#263238"></path>
                <path d="M44.8052863,22.0950413 C47.5336703,22.0950413 49.7454626,19.8879161 49.7454626,17.1652893 C49.7454626,14.4426624 47.5336703,12.2355372 44.8052863,12.2355372 C42.0769024,12.2355372 39.8651101,14.4426624 39.8651101,17.1652893 C39.8696695,19.8860293 42.0787931,22.0904916 44.8052863,22.0950413 L44.8052863,22.0950413 Z M44.8052863,14.2975207 C46.3901733,14.2975207 47.674978,15.5796143 47.674978,17.161157 C47.674978,18.7426997 46.3901733,20.0247934 44.8052863,20.0247934 C43.2203994,20.0247934 41.9355947,18.7426997 41.9355947,17.161157 C41.9378754,15.580558 43.2213451,14.2997965 44.8052863,14.2975207 L44.8052863,14.2975207 Z" id="Shape" fill="#263238"></path>
                <path d="M55.4889868,30.0206612 L71.8168282,30.0206612 C72.3885767,30.0206612 72.8520705,29.5581454 72.8520705,28.9876033 C72.8520705,28.4170612 72.3885767,27.9545455 71.8168282,27.9545455 L55.4889868,27.9545455 C54.9172383,27.9545455 54.4537445,28.4170612 54.4537445,28.9876033 C54.4537445,29.5581454 54.9172383,30.0206612 55.4889868,30.0206612 Z" id="Path" fill="#263238"></path>
                <path d="M47.6791189,28.9876033 C47.6791189,29.5581454 48.1426127,30.0206612 48.7143612,30.0206612 L52.105815,30.0206612 C52.6775635,30.0206612 53.1410573,29.5581454 53.1410573,28.9876033 C53.1410573,28.4170612 52.6775635,27.9545455 52.105815,27.9545455 L48.7143612,27.9545455 C48.1426127,27.9545455 47.6791189,28.4170612 47.6791189,28.9876033 Z" id="Path" fill="#263238"></path>
                <path d="M55.4889868,37.9504132 L71.8168282,37.9504132 C72.3885767,37.9504132 72.8520705,37.4878975 72.8520705,36.9173554 C72.8520705,36.3468133 72.3885767,35.8842975 71.8168282,35.8842975 L55.4889868,35.8842975 C54.9172383,35.8842975 54.4537445,36.3468133 54.4537445,36.9173554 C54.4537445,37.4878975 54.9172383,37.9504132 55.4889868,37.9504132 Z" id="Path" fill="#263238"></path>
                <path d="M52.101674,35.8842975 L48.7102203,35.8842975 C48.1384717,35.8842975 47.674978,36.3468133 47.674978,36.9173554 C47.674978,37.4878975 48.1384717,37.9504132 48.7102203,37.9504132 L52.101674,37.9504132 C52.6734225,37.9504132 53.1369163,37.4878975 53.1369163,36.9173554 C53.1369163,36.3468133 52.6734225,35.8842975 52.101674,35.8842975 Z" id="Path" fill="#263238"></path>
                <path d="M55.4889868,45.8677686 L71.8168282,45.8677686 C72.3885767,45.8677686 72.8520705,45.4052528 72.8520705,44.8347107 C72.8520705,44.2641686 72.3885767,43.8016529 71.8168282,43.8016529 L55.4889868,43.8016529 C54.9172383,43.8016529 54.4537445,44.2641686 54.4537445,44.8347107 C54.4537445,45.4052528 54.9172383,45.8677686 55.4889868,45.8677686 Z" id="Path" fill="#263238"></path>
                <path d="M52.101674,43.8016529 L48.7102203,43.8016529 C48.1384717,43.8016529 47.674978,44.2641686 47.674978,44.8347107 C47.674978,45.4052528 48.1384717,45.8677686 48.7102203,45.8677686 L52.101674,45.8677686 C52.6734225,45.8677686 53.1369163,45.4052528 53.1369163,44.8347107 C53.1369163,44.2641686 52.6734225,43.8016529 52.101674,43.8016529 Z" id="Path" fill="#263238"></path>
                <path d="M55.4889868,53.8099174 L71.8168282,53.8099174 C72.3885767,53.8099174 72.8520705,53.3474016 72.8520705,52.7768595 C72.8520705,52.2063174 72.3885767,51.7438017 71.8168282,51.7438017 L55.4889868,51.7438017 C54.9172383,51.7438017 54.4537445,52.2063174 54.4537445,52.7768595 C54.4537445,53.3474016 54.9172383,53.8099174 55.4889868,53.8099174 L55.4889868,53.8099174 Z" id="Path" fill="#263238"></path>
                <path d="M52.101674,51.7438017 L48.7102203,51.7438017 C48.1384717,51.7438017 47.674978,52.2063174 47.674978,52.7768595 C47.674978,53.3474016 48.1384717,53.8099174 48.7102203,53.8099174 L52.101674,53.8099174 C52.6734225,53.8099174 53.1369163,53.3474016 53.1369163,52.7768595 C53.1369163,52.2063174 52.6734225,51.7438017 52.101674,51.7438017 L52.101674,51.7438017 Z" id="Path" fill="#263238"></path>
                <path d="M55.4889868,61.7355372 L71.8168282,61.7355372 C72.3885767,61.7355372 72.8520705,61.2730214 72.8520705,60.7024793 C72.8520705,60.1319372 72.3885767,59.6694215 71.8168282,59.6694215 L55.4889868,59.6694215 C54.9172383,59.6694215 54.4537445,60.1319372 54.4537445,60.7024793 C54.4537445,61.2730214 54.9172383,61.7355372 55.4889868,61.7355372 Z" id="Path" fill="#263238"></path>
                <path d="M52.101674,59.6694215 L48.7102203,59.6694215 C48.1384717,59.6694215 47.674978,60.1319372 47.674978,60.7024793 C47.674978,61.2730214 48.1384717,61.7355372 48.7102203,61.7355372 L52.101674,61.7355372 C52.6734225,61.7355372 53.1369163,61.2730214 53.1369163,60.7024793 C53.1369163,60.1319372 52.6734225,59.6694215 52.101674,59.6694215 Z" id="Path" fill="#263238"></path>
                <path d="M55.4889868,69.6652893 L71.8168282,69.6652893 C72.3885767,69.6652893 72.8520705,69.2027735 72.8520705,68.6322314 C72.8520705,68.0616893 72.3885767,67.5991736 71.8168282,67.5991736 L55.4889868,67.5991736 C54.9172383,67.5991736 54.4537445,68.0616893 54.4537445,68.6322314 C54.4537445,69.2027735 54.9172383,69.6652893 55.4889868,69.6652893 Z" id="Path" fill="#263238"></path>
                <path d="M52.101674,67.5991736 L48.7102203,67.5991736 C48.1384717,67.5991736 47.674978,68.0616893 47.674978,68.6322314 C47.674978,69.2027735 48.1384717,69.6652893 48.7102203,69.6652893 L52.101674,69.6652893 C52.6734225,69.6652893 53.1369163,69.2027735 53.1369163,68.6322314 C53.1369163,68.0616893 52.6734225,67.5991736 52.101674,67.5991736 Z" id="Path" fill="#263238"></path>
                <path d="M55.4889868,77.5950413 L71.8168282,77.5950413 C72.3885767,77.5950413 72.8520705,77.1325256 72.8520705,76.5619835 C72.8520705,75.9914414 72.3885767,75.5289256 71.8168282,75.5289256 L55.4889868,75.5289256 C54.9172383,75.5289256 54.4537445,75.9914414 54.4537445,76.5619835 C54.4537445,77.1325256 54.9172383,77.5950413 55.4889868,77.5950413 L55.4889868,77.5950413 Z" id="Path" fill="#263238"></path>
                <path d="M52.101674,75.5289256 L48.7102203,75.5289256 C48.1384717,75.5289256 47.674978,75.9914414 47.674978,76.5619835 C47.674978,77.1325256 48.1384717,77.5950413 48.7102203,77.5950413 L52.101674,77.5950413 C52.6734225,77.5950413 53.1369163,77.1325256 53.1369163,76.5619835 C53.1369163,75.9914414 52.6734225,75.5289256 52.101674,75.5289256 L52.101674,75.5289256 Z" id="Path" fill="#263238"></path>
                <path d="M55.4889868,85.5371901 L71.8168282,85.5371901 C72.3885767,85.5371901 72.8520705,85.0746743 72.8520705,84.5041322 C72.8520705,83.9335901 72.3885767,83.4710744 71.8168282,83.4710744 L55.4889868,83.4710744 C54.9172383,83.4710744 54.4537445,83.9335901 54.4537445,84.5041322 C54.4537445,85.0746743 54.9172383,85.5371901 55.4889868,85.5371901 L55.4889868,85.5371901 Z" id="Path" fill="#263238"></path>
                <path d="M52.101674,83.4710744 L48.7102203,83.4710744 C48.1384717,83.4710744 47.674978,83.9335901 47.674978,84.5041322 C47.674978,85.0746743 48.1384717,85.5371901 48.7102203,85.5371901 L52.101674,85.5371901 C52.6734225,85.5371901 53.1369163,85.0746743 53.1369163,84.5041322 C53.1369163,83.9335901 52.6734225,83.4710744 52.101674,83.4710744 L52.101674,83.4710744 Z" id="Path" fill="#263238"></path>
                <path d="M55.4889868,93.4504132 L71.8168282,93.4504132 C72.3885767,93.4504132 72.8520705,92.9878975 72.8520705,92.4173554 C72.8520705,91.8468133 72.3885767,91.3842975 71.8168282,91.3842975 L55.4889868,91.3842975 C54.9172383,91.3842975 54.4537445,91.8468133 54.4537445,92.4173554 C54.4537445,92.9878975 54.9172383,93.4504132 55.4889868,93.4504132 Z" id="Path" fill="#263238"></path>
                <path d="M52.101674,91.3842975 L48.7102203,91.3842975 C48.1384717,91.3842975 47.674978,91.8468133 47.674978,92.4173554 C47.674978,92.9878975 48.1384717,93.4504132 48.7102203,93.4504132 L52.101674,93.4504132 C52.6734225,93.4504132 53.1369163,92.9878975 53.1369163,92.4173554 C53.1369163,91.8468133 52.6734225,91.3842975 52.101674,91.3842975 Z" id="Path" fill="#263238"></path>
                <path d="M24.572511,30.0206612 L40.9003524,30.0206612 C41.472101,30.0206612 41.9355947,29.5581454 41.9355947,28.9876033 C41.9355947,28.4170612 41.472101,27.9545455 40.9003524,27.9545455 L24.572511,27.9545455 C24.0007625,27.9545455 23.5372687,28.4170612 23.5372687,28.9876033 C23.5372687,29.5581454 24.0007625,30.0206612 24.572511,30.0206612 Z" id="Path" fill="#263238"></path>
                <path d="M17.8061674,30.0206612 L21.1976211,30.0206612 C21.7693697,30.0206612 22.2328634,29.5581454 22.2328634,28.9876033 C22.2328634,28.4170612 21.7693697,27.9545455 21.1976211,27.9545455 L17.8061674,27.9545455 C17.2344189,27.9545455 16.7709251,28.4170612 16.7709251,28.9876033 C16.7709251,29.5581454 17.2344189,30.0206612 17.8061674,30.0206612 L17.8061674,30.0206612 Z" id="Path" fill="#263238"></path>
                <path d="M24.572511,37.9504132 L40.9003524,37.9504132 C41.472101,37.9504132 41.9355947,37.4878975 41.9355947,36.9173554 C41.9355947,36.3468133 41.472101,35.8842975 40.9003524,35.8842975 L24.572511,35.8842975 C24.0007625,35.8842975 23.5372687,36.3468133 23.5372687,36.9173554 C23.5372687,37.4878975 24.0007625,37.9504132 24.572511,37.9504132 Z" id="Path" fill="#263238"></path>
                <path d="M17.8061674,37.9504132 L21.1976211,37.9504132 C21.7693697,37.9504132 22.2328634,37.4878975 22.2328634,36.9173554 C22.2328634,36.3468133 21.7693697,35.8842975 21.1976211,35.8842975 L17.8061674,35.8842975 C17.2344189,35.8842975 16.7709251,36.3468133 16.7709251,36.9173554 C16.7709251,37.4878975 17.2344189,37.9504132 17.8061674,37.9504132 L17.8061674,37.9504132 Z" id="Path" fill="#263238"></path>
                <path d="M24.572511,45.8677686 L40.9003524,45.8677686 C41.472101,45.8677686 41.9355947,45.4052528 41.9355947,44.8347107 C41.9355947,44.2641686 41.472101,43.8016529 40.9003524,43.8016529 L24.572511,43.8016529 C24.0007625,43.8016529 23.5372687,44.2641686 23.5372687,44.8347107 C23.5372687,45.4052528 24.0007625,45.8677686 24.572511,45.8677686 Z" id="Path" fill="#263238"></path>
                <path d="M17.8061674,45.8677686 L21.1976211,45.8677686 C21.7693697,45.8677686 22.2328634,45.4052528 22.2328634,44.8347107 C22.2328634,44.2641686 21.7693697,43.8016529 21.1976211,43.8016529 L17.8061674,43.8016529 C17.2344189,43.8016529 16.7709251,44.2641686 16.7709251,44.8347107 C16.7709251,45.4052528 17.2344189,45.8677686 17.8061674,45.8677686 L17.8061674,45.8677686 Z" id="Path" fill="#263238"></path>
                <path d="M24.572511,53.8099174 L40.9003524,53.8099174 C41.472101,53.8099174 41.9355947,53.3474016 41.9355947,52.7768595 C41.9355947,52.2063174 41.472101,51.7438017 40.9003524,51.7438017 L24.572511,51.7438017 C24.0007625,51.7438017 23.5372687,52.2063174 23.5372687,52.7768595 C23.5372687,53.3474016 24.0007625,53.8099174 24.572511,53.8099174 L24.572511,53.8099174 Z" id="Path" fill="#263238"></path>
                <path d="M17.8061674,53.8099174 L21.1976211,53.8099174 C21.7693697,53.8099174 22.2328634,53.3474016 22.2328634,52.7768595 C22.2328634,52.2063174 21.7693697,51.7438017 21.1976211,51.7438017 L17.8061674,51.7438017 C17.2344189,51.7438017 16.7709251,52.2063174 16.7709251,52.7768595 C16.7709251,53.3474016 17.2344189,53.8099174 17.8061674,53.8099174 L17.8061674,53.8099174 Z" id="Path" fill="#263238"></path>
                <path d="M24.572511,61.7355372 L40.9003524,61.7355372 C41.472101,61.7355372 41.9355947,61.2730214 41.9355947,60.7024793 C41.9355947,60.1319372 41.472101,59.6694215 40.9003524,59.6694215 L24.572511,59.6694215 C24.0007625,59.6694215 23.5372687,60.1319372 23.5372687,60.7024793 C23.5372687,61.2730214 24.0007625,61.7355372 24.572511,61.7355372 Z" id="Path" fill="#263238"></path>
                <path d="M17.8061674,61.7355372 L21.1976211,61.7355372 C21.7693697,61.7355372 22.2328634,61.2730214 22.2328634,60.7024793 C22.2328634,60.1319372 21.7693697,59.6694215 21.1976211,59.6694215 L17.8061674,59.6694215 C17.2344189,59.6694215 16.7709251,60.1319372 16.7709251,60.7024793 C16.7709251,61.2730214 17.2344189,61.7355372 17.8061674,61.7355372 L17.8061674,61.7355372 Z" id="Path" fill="#263238"></path>
                <path d="M24.572511,69.6652893 L40.9003524,69.6652893 C41.472101,69.6652893 41.9355947,69.2027735 41.9355947,68.6322314 C41.9355947,68.0616893 41.472101,67.5991736 40.9003524,67.5991736 L24.572511,67.5991736 C24.0007625,67.5991736 23.5372687,68.0616893 23.5372687,68.6322314 C23.5372687,69.2027735 24.0007625,69.6652893 24.572511,69.6652893 Z" id="Path" fill="#263238"></path>
                <path d="M17.8061674,69.6652893 L21.1976211,69.6652893 C21.7693697,69.6652893 22.2328634,69.2027735 22.2328634,68.6322314 C22.2328634,68.0616893 21.7693697,67.5991736 21.1976211,67.5991736 L17.8061674,67.5991736 C17.2344189,67.5991736 16.7709251,68.0616893 16.7709251,68.6322314 C16.7709251,69.2027735 17.2344189,69.6652893 17.8061674,69.6652893 L17.8061674,69.6652893 Z" id="Path" fill="#263238"></path>
                <path d="M24.572511,77.5950413 L40.9003524,77.5950413 C41.472101,77.5950413 41.9355947,77.1325256 41.9355947,76.5619835 C41.9355947,75.9914414 41.472101,75.5289256 40.9003524,75.5289256 L24.572511,75.5289256 C24.0007625,75.5289256 23.5372687,75.9914414 23.5372687,76.5619835 C23.5372687,77.1325256 24.0007625,77.5950413 24.572511,77.5950413 L24.572511,77.5950413 Z" id="Path" fill="#263238"></path>
                <path d="M17.8061674,77.5950413 L21.1976211,77.5950413 C21.7693697,77.5950413 22.2328634,77.1325256 22.2328634,76.5619835 C22.2328634,75.9914414 21.7693697,75.5289256 21.1976211,75.5289256 L17.8061674,75.5289256 C17.2344189,75.5289256 16.7709251,75.9914414 16.7709251,76.5619835 C16.7709251,77.1325256 17.2344189,77.5950413 17.8061674,77.5950413 L17.8061674,77.5950413 Z" id="Path" fill="#263238"></path>
                <path d="M24.572511,85.5371901 L40.9003524,85.5371901 C41.472101,85.5371901 41.9355947,85.0746743 41.9355947,84.5041322 C41.9355947,83.9335901 41.472101,83.4710744 40.9003524,83.4710744 L24.572511,83.4710744 C24.0007625,83.4710744 23.5372687,83.9335901 23.5372687,84.5041322 C23.5372687,85.0746743 24.0007625,85.5371901 24.572511,85.5371901 L24.572511,85.5371901 Z" id="Path" fill="#263238"></path>
                <path d="M17.8061674,85.5371901 L21.1976211,85.5371901 C21.7693697,85.5371901 22.2328634,85.0746743 22.2328634,84.5041322 C22.2328634,83.9335901 21.7693697,83.4710744 21.1976211,83.4710744 L17.8061674,83.4710744 C17.2344189,83.4710744 16.7709251,83.9335901 16.7709251,84.5041322 C16.7709251,85.0746743 17.2344189,85.5371901 17.8061674,85.5371901 L17.8061674,85.5371901 Z" id="Path" fill="#263238"></path>
                <path d="M24.572511,93.4504132 L40.9003524,93.4504132 C41.472101,93.4504132 41.9355947,92.9878975 41.9355947,92.4173554 C41.9355947,91.8468133 41.472101,91.3842975 40.9003524,91.3842975 L24.572511,91.3842975 C24.0007625,91.3842975 23.5372687,91.8468133 23.5372687,92.4173554 C23.5372687,92.9878975 24.0007625,93.4504132 24.572511,93.4504132 Z" id="Path" fill="#263238"></path>
                <path d="M17.8061674,93.4504132 L21.1976211,93.4504132 C21.7693697,93.4504132 22.2328634,92.9878975 22.2328634,92.4173554 C22.2328634,91.8468133 21.7693697,91.3842975 21.1976211,91.3842975 L17.8061674,91.3842975 C17.2344189,91.3842975 16.7709251,91.8468133 16.7709251,92.4173554 C16.7709251,92.9878975 17.2344189,93.4504132 17.8061674,93.4504132 L17.8061674,93.4504132 Z" id="Path" fill="#263238"></path>
                <path d="M2.38519824,2.72727273 L2.38519824,4.38016529 L0.728810573,4.38016529 C0.500111161,4.38016529 0.314713656,4.56517159 0.314713656,4.79338843 C0.314713656,5.02160527 0.500111161,5.20661157 0.728810573,5.20661157 L2.38519824,5.20661157 L2.38519824,6.85950413 C2.38519824,7.08772097 2.57059574,7.27272727 2.79929515,7.27272727 C3.02799457,7.27272727 3.21339207,7.08772097 3.21339207,6.85950413 L3.21339207,5.20661157 L4.86977974,5.20661157 C5.09847915,5.20661157 5.28387665,5.02160527 5.28387665,4.79338843 C5.28387665,4.56517159 5.09847915,4.38016529 4.86977974,4.38016529 L3.21339207,4.38016529 L3.21339207,2.72727273 C3.21339207,2.49905589 3.02799457,2.31404959 2.79929515,2.31404959 C2.57059574,2.31404959 2.38519824,2.49905589 2.38519824,2.72727273 Z" id="Path" fill="#FFDD00"></path>
                <path d="M91.1013216,68.0123967 L91.1013216,69.6652893 L89.4449339,69.6652893 C89.2162345,69.6652893 89.030837,69.8502956 89.030837,70.0785124 C89.030837,70.3067292 89.2162345,70.4917355 89.4449339,70.4917355 L91.1013216,70.4917355 L91.1013216,72.1446281 C91.1013216,72.3728449 91.2867191,72.5578512 91.5154185,72.5578512 C91.7441179,72.5578512 91.9295154,72.3728449 91.9295154,72.1446281 L91.9295154,70.4917355 L93.5859031,70.4917355 C93.8146025,70.4917355 94,70.3067292 94,70.0785124 C94,69.8502956 93.8146025,69.6652893 93.5859031,69.6652893 L91.9295154,69.6652893 L91.9295154,68.0123967 C91.9295154,67.7841799 91.7441179,67.5991736 91.5154185,67.5991736 C91.2867191,67.5991736 91.1013216,67.7841799 91.1013216,68.0123967 Z" id="Path" fill="#40BDFF"></path>
                <path d="M2.38519824,75.5785124 L2.38519824,77.231405 L0.728810573,77.231405 C0.500111161,77.231405 0.314713656,77.4164113 0.314713656,77.6446281 C0.314713656,77.8728449 0.500111161,78.0578512 0.728810573,78.0578512 L2.38519824,78.0578512 L2.38519824,79.7107438 C2.38519824,79.9389606 2.57059574,80.1239669 2.79929515,80.1239669 C3.02799457,80.1239669 3.21339207,79.9389606 3.21339207,79.7107438 L3.21339207,78.0578512 L4.86977974,78.0578512 C5.09847915,78.0578512 5.28387665,77.8728449 5.28387665,77.6446281 C5.28387665,77.4164113 5.09847915,77.231405 4.86977974,77.231405 L3.21339207,77.231405 L3.21339207,75.5785124 C3.21339207,75.3502956 3.02799457,75.1652893 2.79929515,75.1652893 C2.57059574,75.1652893 2.38519824,75.3502956 2.38519824,75.5785124 Z" id="Path" fill="#FFDD00"></path>
                <path d="M6.21145374,39.7933884 C6.21145374,41.1626895 5.09906872,42.2727273 3.72687225,42.2727273 C2.35467578,42.2727273 1.24229075,41.1626895 1.24229075,39.7933884 C1.24229075,38.4240874 2.35467578,37.3140496 3.72687225,37.3140496 C4.38582423,37.3140496 5.01778726,37.5752649 5.48373667,38.0402311 C5.94968609,38.5051973 6.21145374,39.1358269 6.21145374,39.7933884 L6.21145374,39.7933884 Z M2.07048458,39.7933884 C2.07048458,40.7062558 2.8120746,41.446281 3.72687225,41.446281 C4.64166989,41.446281 5.38325991,40.7062558 5.38325991,39.7933884 C5.38325991,38.8805211 4.64166989,38.1404959 3.72687225,38.1404959 C2.8120746,38.1404959 2.07048458,38.8805211 2.07048458,39.7933884 Z" id="Shape" fill="#40BDFF"></path>
                <path d="M94,23.3801653 C94,24.7494663 92.887615,25.8595041 91.5154185,25.8595041 C90.143222,25.8595041 89.030837,24.7494663 89.030837,23.3801653 C89.030837,22.0108643 90.143222,20.9008264 91.5154185,20.9008264 C92.887615,20.9008264 94,22.0108643 94,23.3801653 L94,23.3801653 Z M89.8590308,23.3801653 C89.8590308,24.2930326 90.6006209,25.0330579 91.5154185,25.0330579 C92.4302161,25.0330579 93.1718062,24.2930326 93.1718062,23.3801653 C93.1718062,22.4672979 92.4302161,21.7272727 91.5154185,21.7272727 C90.6006209,21.7272727 89.8590308,22.4672979 89.8590308,23.3801653 Z" id="Shape" fill="#FFDD00"></path>
            </g>
        </g>
    </g>
</svg>