<?xml version="1.0" encoding="UTF-8"?>
<svg width="12px" height="16px" viewBox="0 0 12 16" version="1.1" xmlns="http://www.w3.org/2000/svg" xmlns:xlink="http://www.w3.org/1999/xlink">
    <!-- Generator: Sketch 54.1 (76490) - https://sketchapp.com -->
    <title>Group</title>
    <desc>Created with Sketch.</desc>
    <g id="DRIVER" stroke="none" stroke-width="1" fill="none" fill-rule="evenodd">
        <g id="home" transform="translate(-34.000000, -592.000000)" fill="#000000" fill-rule="nonzero">
            <g id="Group" transform="translate(34.000000, 592.000000)">
                <path d="M6,16 C5.862,16 5.7234,15.94944 5.6112,15.84768 C5.466,15.71584 2.046,12.58368 0.6192,9.16736 C0.4842,8.8448 0.6204,8.46592 0.9234,8.32256 C1.2252,8.1792 1.5804,8.32384 1.7154,8.64704 C2.7588,11.14624 5.0616,13.5744 5.9898,14.49024 C7.6278,12.79424 10.8,9.00416 10.8,6.5472 C10.8,3.64288 8.6466,1.28 6,1.28 C3.3534,1.28 1.2,3.64288 1.2,6.5472 C1.2,6.90048 0.9312,7.1872 0.6,7.1872 C0.2688,7.1872 0,6.90048 0,6.5472 C0,2.93696 2.6916,0 6,0 C9.3084,0 12,2.93696 12,6.5472 C12,10.33088 6.6336,15.60896 6.405,15.83232 C6.2904,15.94368 6.1452,16 6,16 Z" id="Path"></path>
                <path d="M6,8.96 C4.6764,8.96 3.6,7.81184 3.6,6.4 C3.6,4.98816 4.6764,3.84 6,3.84 C7.3236,3.84 8.4,4.98816 8.4,6.4 C8.4,7.81184 7.3236,8.96 6,8.96 Z M6,5.12 C5.3382,5.12 4.8,5.69408 4.8,6.4 C4.8,7.10592 5.3382,7.68 6,7.68 C6.6618,7.68 7.2,7.10592 7.2,6.4 C7.2,5.69408 6.6618,5.12 6,5.12 Z" id="Shape"></path>
            </g>
        </g>
    </g>
</svg>