<?xml version="1.0" encoding="UTF-8"?>
<svg width="14px" height="20px" viewBox="0 0 14 20" version="1.1" xmlns="http://www.w3.org/2000/svg" xmlns:xlink="http://www.w3.org/1999/xlink">
    <!-- Generator: Sketch 54.1 (76490) - https://sketchapp.com -->
    <title>iconfinder_General_Office_40_2530815</title>
    <desc>Created with Sketch.</desc>
    <g id="final" stroke="none" stroke-width="1" fill="none" fill-rule="evenodd">
        <g id="Cliam-Assessment_Step4" transform="translate(-69.000000, -659.000000)" fill-rule="nonzero">
            <g id="Group-6" transform="translate(69.000000, 659.000000)">
                <g id="iconfinder_General_Office_40_2530815">
                    <g id="Group" transform="translate(0.000000, 6.400000)">
                        <path d="M13.2565263,8.15620984 C13.2565263,10.7725377 10.4813333,12.8932459 7.05403509,12.8932459 L6.87792982,12.8932459 C3.45259649,12.8932459 0.676421053,10.7725377 0.676421053,8.15620984 L0.676421053,5.38002623 C0.676421053,2.76503607 3.45259649,0.642990164 6.87792982,0.642990164 L7.05403509,0.642990164 C10.4813333,0.642990164 13.2565263,2.76525902 13.2565263,5.38002623 L13.2565263,8.15620984 Z" id="Path" fill="#F4767A"></path>
                        <path d="M7.05403509,13.4535213 L6.87792982,13.4535213 C3.11807018,13.4535213 0.0591929825,11.0770885 0.0591929825,8.15620984 L0.0591929825,5.38002623 C0.0591929825,2.45892459 3.11807018,0.0827147541 6.87792982,0.0827147541 L7.05403509,0.0827147541 C10.814386,0.0827147541 13.8737544,2.45892459 13.8737544,5.38002623 L13.8737544,8.15620984 C13.8735088,11.0770885 10.8141404,13.4535213 7.05403509,13.4535213 Z M6.87792982,1.20304262 C3.79866667,1.20304262 1.29364912,3.07672131 1.29364912,5.37980328 L1.29364912,8.15598689 C1.29364912,10.4590689 3.79866667,12.3327475 6.87792982,12.3327475 L7.05403509,12.3327475 C10.1337895,12.3327475 12.6392982,10.4590689 12.6392982,8.15598689 L12.6392982,5.38002623 C12.6392982,3.07694426 10.1337895,1.20326557 7.05403509,1.20326557 L6.87792982,1.20326557 L6.87792982,1.20304262 Z" id="Shape" fill="#454B53"></path>
                    </g>
                    <path d="M11.7424887,8.8 C11.4050505,8.8 11.1315506,8.55220885 11.1315506,8.24626937 L11.1315506,4.11817886 C11.1315506,2.45764774 9.30821763,1.10680049 7.06673366,1.10680049 L6.93472436,1.10680049 C4.69275417,1.10680049 2.86893501,2.45764774 2.86893501,4.11817886 L2.86893501,8.24626937 C2.86893501,8.55220885 2.59543506,8.8 2.25799691,8.8 C1.92055876,8.8 1.64705882,8.55220885 1.64705882,8.24626937 L1.64705882,4.11817886 C1.64705882,1.84731059 4.01909343,0 6.93448125,0 L7.06649055,0 C9.98139215,0 12.3529405,1.84753085 12.3529405,4.11817886 L12.3529405,8.24626937 C12.3534268,8.55220885 12.0799268,8.8 11.7424887,8.8 Z" id="Path" fill="#454B53"></path>
                    <path d="M7,16 C6.77257087,16 6.58823529,15.7465622 6.58823529,15.4338762 L6.58823529,11.7661238 C6.58823529,11.4534378 6.77257087,11.2 7,11.2 C7.22742913,11.2 7.41176471,11.4534378 7.41176471,11.7661238 L7.41176471,15.4338762 C7.41176471,15.7465622 7.22742913,16 7,16 Z" id="Path" fill="#454B53"></path>
                </g>
            </g>
        </g>
    </g>
</svg>