<?xml version="1.0" encoding="UTF-8"?>
<svg width="9px" height="11px" viewBox="0 0 9 11" version="1.1" xmlns="http://www.w3.org/2000/svg" xmlns:xlink="http://www.w3.org/1999/xlink">
    <!-- Generator: Sketch 54.1 (76490) - https://sketchapp.com -->
    <title></title>
    <desc>Created with Sketch.</desc>
    <g id="final" stroke="none" stroke-width="1" fill="none" fill-rule="evenodd">
        <g id="signin_view-1" transform="translate(-58.000000, -352.000000)" fill="#A8B6C8">
            <g id="LoginOuter" transform="translate(25.000000, 181.000000)">
                <g id="PasswordInput" transform="translate(20.000000, 152.000000)">
                    <path d="M15.5,24 L19.5,24 L19.5,22.5 C19.5,21.9479139 19.3046895,21.4765645 18.9140625,21.0859375 C18.5234355,20.6953105 18.0520861,20.5 17.5,20.5 C16.9479139,20.5 16.4765645,20.6953105 16.0859375,21.0859375 C15.6953105,21.4765645 15.5,21.9479139 15.5,22.5 L15.5,24 Z M22,24.75 L22,29.25 C22,29.4583344 21.9270841,29.6354159 21.78125,29.78125 C21.6354159,29.9270841 21.4583344,30 21.25,30 L13.75,30 C13.5416656,30 13.3645841,29.9270841 13.21875,29.78125 C13.0729159,29.6354159 13,29.4583344 13,29.25 L13,24.75 C13,24.5416656 13.0729159,24.3645841 13.21875,24.21875 C13.3645841,24.0729159 13.5416656,24 13.75,24 L14,24 L14,22.5 C14,21.5416619 14.3437466,20.7187534 15.03125,20.03125 C15.7187534,19.3437466 16.5416619,19 17.5,19 C18.4583381,19 19.2812466,19.3437466 19.96875,20.03125 C20.6562534,20.7187534 21,21.5416619 21,22.5 L21,24 L21.25,24 C21.4583344,24 21.6354159,24.0729159 21.78125,24.21875 C21.9270841,24.3645841 22,24.5416656 22,24.75 Z" id=""></path>
                </g>
            </g>
        </g>
    </g>
</svg>