<?xml version="1.0" encoding="UTF-8"?>
<svg width="26px" height="28px" viewBox="0 0 26 28" version="1.1" xmlns="http://www.w3.org/2000/svg" xmlns:xlink="http://www.w3.org/1999/xlink">
    <!-- Generator: Sketch 54.1 (76490) - https://sketchapp.com -->
    <title>◻️ Inactive opacity</title>
    <desc>Created with Sketch.</desc>
    <g id="final" stroke="none" stroke-width="1" fill="none" fill-rule="evenodd">
        <g id="pre_delivery" transform="translate(-125.000000, -750.000000)">
            <g id="Navbar" transform="translate(0.000000, 716.000000)">
                <g id="Group-3" transform="translate(0.000000, 13.000000)">
                    <g id="Group-2">
                        <g id="◻️-Inactive-opacity" transform="translate(123.000000, 20.000000)">
                            <g id="Group-4">
                                <g id="💎-Icon">
                                    <rect id="Path" x="0" y="0" width="30" height="30"></rect>
                                    <path d="M26.25,19.9974365 L26.25,9.99743649 C26.2490848,9.1051885 25.7727101,8.28106025 25,7.83493649 L16.25,2.83493649 C15.4764973,2.3883545 14.5235027,2.3883545 13.75,2.83493649 L5,7.83493649 C4.2272899,8.28106025 3.75091519,9.1051885 3.75,9.99743649 L3.75,19.9974365 C3.75091519,20.8896845 4.2272899,21.7138127 5,22.1599365 L13.75,27.1599365 C14.5235027,27.6065185 15.4764973,27.6065185 16.25,27.1599365 L25,22.1599365 C25.7727101,21.7138127 26.2490848,20.8896845 26.25,19.9974365 Z" id="Border" stroke="#33465D" stroke-width="2.5" stroke-linecap="round" stroke-linejoin="round"></path>
                                    <path d="M20.625,11.7474365 L9.375,5.25993649" id="Box-tape" stroke="#33465D" stroke-width="2.5" stroke-linecap="round" stroke-linejoin="round"></path>
                                    <path d="M15,15.0099365 L15,14.9974365 L15,27.5974365 L15,15.0099365 L4.0875,8.69743649 L25.9125,8.69743649 L15,15.0099365 Z" id="Box-walls" stroke="#33465D" stroke-width="2.5" stroke-linecap="round" stroke-linejoin="round"></path>
                                </g>
                            </g>
                        </g>
                    </g>
                </g>
            </g>
        </g>
    </g>
</svg>