<?xml version="1.0" encoding="UTF-8"?>
<svg width="10px" height="12px" viewBox="0 0 10 12" version="1.1" xmlns="http://www.w3.org/2000/svg" xmlns:xlink="http://www.w3.org/1999/xlink">
    <!-- Generator: Sketch 54.1 (76490) - https://sketchapp.com -->
    <title></title>
    <desc>Created with Sketch.</desc>
    <g id="final" stroke="none" stroke-width="1" fill="none" fill-rule="evenodd">
        <g id="signin_view-1" transform="translate(-58.000000, -294.000000)" fill="#A8B6C8">
            <g id="LoginOuter" transform="translate(25.000000, 181.000000)">
                <g id="UsernameInput" transform="translate(20.000000, 94.000000)">
                    <path d="M23,28.9296875 C23,29.4973987 22.8372412,29.984373 22.5117188,30.390625 C22.1861963,30.796877 21.7942731,31 21.3359375,31 L14.6640625,31 C14.2057269,31 13.8138037,30.796877 13.4882812,30.390625 C13.1627588,29.984373 13,29.4973987 13,28.9296875 C13,28.486977 13.0221352,28.0690124 13.0664062,27.6757812 C13.1106773,27.2825501 13.1927077,26.8867207 13.3125,26.4882812 C13.4322923,26.0898418 13.5846345,25.7486993 13.7695312,25.4648438 C13.954428,25.1809882 14.1992172,24.9492196 14.5039062,24.7695312 C14.8085953,24.5898429 15.1588522,24.5 15.5546875,24.5 C16.2369826,25.16667 17.0520786,25.5 18,25.5 C18.9479214,25.5 19.7630174,25.16667 20.4453125,24.5 C20.8411478,24.5 21.1914047,24.5898429 21.4960938,24.7695312 C21.8007828,24.9492196 22.045572,25.1809882 22.2304688,25.4648438 C22.4153655,25.7486993 22.5677077,26.0898418 22.6875,26.4882812 C22.8072923,26.8867207 22.8893227,27.2825501 22.9335938,27.6757812 C22.9778648,28.0690124 23,28.486977 23,28.9296875 Z M21,22 C21,22.8281291 20.7070342,23.5351533 20.1210938,24.1210938 C19.5351533,24.7070342 18.8281291,25 18,25 C17.1718709,25 16.4648467,24.7070342 15.8789062,24.1210938 C15.2929658,23.5351533 15,22.8281291 15,22 C15,21.1718709 15.2929658,20.4648467 15.8789062,19.8789062 C16.4648467,19.2929658 17.1718709,19 18,19 C18.8281291,19 19.5351533,19.2929658 20.1210938,19.8789062 C20.7070342,20.4648467 21,21.1718709 21,22 Z" id=""></path>
                </g>
            </g>
        </g>
    </g>
</svg>