<?xml version="1.0" encoding="UTF-8"?>
<svg width="24px" height="30px" viewBox="0 0 24 30" version="1.1" xmlns="http://www.w3.org/2000/svg" xmlns:xlink="http://www.w3.org/1999/xlink">
    <!-- Generator: Sketch 54.1 (76490) - https://sketchapp.com -->
    <title>4177613_checklist_checkmark_document_list_icon</title>
    <desc>Created with Sketch.</desc>
    <g id="final" stroke="none" stroke-width="1" fill="none" fill-rule="evenodd">
        <g id="Route_Activity_List" transform="translate(-223.000000, -744.000000)" fill="#33465D" fill-rule="nonzero">
            <g id="Navbar" transform="translate(0.000000, 723.000000)">
                <g id="Group-3" transform="translate(0.000000, 1.000000)">
                    <g id="Group-2">
                        <g id="4177613_checklist_checkmark_document_list_icon" transform="translate(224.000000, 21.000000)">
                            <path d="M21.66,7.63 C21.6567172,7.60678213 21.6567172,7.58321787 21.66,7.56 C21.4613398,7.13603701 21.1944614,6.74754305 20.87,6.41 L15.59,1.17 C14.8392116,0.420045716 13.8211852,-0.000834459932 12.76,-6.66134238e-16 L3,-1.2384687e-06 C1.34314575,-1.11022345e-15 0,1.34314575 0,2.99999876 L0,24.9999988 C0,26.6568542 1.34314575,28 3,27.9999988 L19,27.9999988 C20.6568542,28 22,26.6568542 22,24.9999988 L22,9.24 C21.9994706,8.68556968 21.8836877,8.13730372 21.66,7.63 Z M15,3.41 L18.59,7 L16,7 C15.4477153,7 15,6.55228475 15,6 L15,3.41 Z M20,25 C20,25.5522847 19.5522847,26 19,26 L3,26 C2.44771525,26 2,25.5522847 2,25 L2,3 C2,2.44771525 2.44771525,2 3,2 L12.76,2 L13,2 L13,6 C13,7.65685425 14.3431458,9 16,9 L20,9 C20.0049532,9.07992333 20.0049532,9.16007667 20,9.24 L20,25 Z" id="Shape" stroke="#2B3B4F" stroke-width="0.3"></path>
                            <path d="M7.29,17.29 L6,18.59 L5.71,18.29 C5.45634143,18.0363414 5.08662601,17.9372765 4.74012196,18.030122 C4.39361791,18.1229674 4.12296744,18.3936179 4.03012196,18.740122 C3.93727648,19.086626 4.03634143,19.4563414 4.29,19.71 L5.29,20.71 C5.4777666,20.8993127 5.73336246,21.0057983 6,21.0057983 C6.26663754,21.0057983 6.5222334,20.8993127 6.71,20.71 L8.71,18.71 C9.10212217,18.3178778 9.10212217,17.6821222 8.71,17.29 C8.31787783,16.8978778 7.68212217,16.8978778 7.29,17.29 L7.29,17.29 Z" id="Path"></path>
                            <path d="M7.29,11.29 L6,12.59 L5.71,12.29 C5.31787783,11.8978778 4.68212217,11.8978778 4.29,12.29 C3.89787783,12.6821222 3.89787783,13.3178778 4.29,13.71 L5.29,14.71 C5.4777666,14.8993127 5.73336246,15.0057983 6,15.0057983 C6.26663754,15.0057983 6.5222334,14.8993127 6.71,14.71 L8.71,12.71 C9.10212216,12.3178778 9.10212216,11.6821222 8.70999999,11.29 C8.31787782,10.8978778 7.68212217,10.8978778 7.29,11.29 L7.29,11.29 Z" id="Path"></path>
                            <path d="M17,12 L12,12 C11.4477153,12 11,12.4477153 11,13 C11,13.5522847 11.4477153,14 12,14 L17,14 C17.5522847,14 18,13.5522847 18,13 C18,12.4477153 17.5522847,12 17,12 Z" id="Path"></path>
                            <path d="M17,18 L12,18 C11.4477153,18 11,18.4477153 11,19 C11,19.5522847 11.4477153,20 12,20 L17,20 C17.5522847,20 18,19.5522847 18,19 C18,18.4477153 17.5522847,18 17,18 Z" id="Path"></path>
                        </g>
                    </g>
                </g>
            </g>
        </g>
    </g>
</svg>