<?xml version="1.0" encoding="UTF-8"?>
<svg width="30px" height="30px" viewBox="0 0 30 30" version="1.1" xmlns="http://www.w3.org/2000/svg" xmlns:xlink="http://www.w3.org/1999/xlink">
    <!-- Generator: Sketch 54.1 (76490) - https://sketchapp.com -->
    <title>2849830_multimedia_options_setting_settings_gear_icon (1)</title>
    <desc>Created with Sketch.</desc>
    <g id="final" stroke="none" stroke-width="1" fill="none" fill-rule="evenodd">
        <g id="settings" transform="translate(-305.000000, -744.000000)" fill="#33465D" fill-rule="nonzero">
            <g id="Group-5" transform="translate(0.000000, 711.000000)">
                <g id="Navbar">
                    <g id="Group-3" transform="translate(0.000000, 13.000000)">
                        <g id="Group-2">
                            <g id="2849830_multimedia_options_setting_settings_gear_icon-(1)" transform="translate(305.000000, 20.000000)">
                                <path d="M17.2630273,30 L12.7689826,30 C12.1977204,30.0001315 11.7184856,29.5680049 11.6583127,28.9985075 L11.3255583,25.8574627 C10.8610379,25.6989815 10.4072359,25.510528 9.96699752,25.2932836 L7.51861042,27.2783582 C7.07488027,27.6366336 6.4332441,27.6025422 6.02977667,27.1992537 L2.85186104,24.0134328 C2.44957325,23.6089618 2.41556653,22.9657295 2.77295285,22.5208955 L4.75384615,20.0634328 C4.53676923,19.6221717 4.34853126,19.1672326 4.19032258,18.7014925 L1.05186104,18.3656716 C0.484059813,18.3053791 0.0531031043,17.825383 0.052853598,17.2529851 L0.052853598,12.7470149 C0.0531031043,12.174617 0.484059813,11.6946209 1.05186104,11.6343284 L4.18511166,11.3007463 C4.34332034,10.8350062 4.53155831,10.3800671 4.74863524,9.93880597 L2.76774194,7.48134328 C2.41035561,7.03650933 2.44436233,6.39327704 2.84665012,5.98880597 L6.02456576,2.80298507 C6.42803318,2.39969657 7.06966935,2.36560525 7.5133995,2.7238806 L9.96476427,4.70895522 C10.4050026,4.49171082 10.8588046,4.30325726 11.3233251,4.14477612 L11.6560794,1.00373134 C11.7152765,0.432493841 12.1960971,-0.00115992153 12.7689826,-3.28758559e-15 L17.2630273,-3.28758559e-15 C17.8342895,-0.00013154138 18.3135243,0.431995124 18.3736973,1.00149254 L18.7057072,4.14253731 C19.1704705,4.30101574 19.6245203,4.48946895 20.0650124,4.70671642 L22.5156328,2.72164179 C22.9593629,2.36336645 23.6009991,2.39745776 24.0044665,2.80074627 L27.1823821,5.98656716 C27.5846699,6.39103824 27.6186766,7.03427052 27.2612903,7.47910448 L25.280397,9.93656716 C25.4971618,10.3779701 25.6853912,10.8328887 25.8439206,11.2985075 L28.9771712,11.6320896 C29.5446774,11.6927365 29.9752253,12.1726349 29.9754342,12.7447761 L29.9754342,17.2507463 C29.9765306,17.8227185 29.5473243,18.3035183 28.9801489,18.3656716 L25.8468983,18.6992537 C25.6883689,19.1648725 25.5001394,19.6197911 25.2833747,20.061194 L27.264268,22.5186567 C27.6216543,22.9634907 27.5876476,23.606723 27.1853598,24.011194 L24.0074442,27.1992537 C23.6039767,27.6025422 22.9623406,27.6366336 22.5186104,27.2783582 L20.0679901,25.2932836 C19.627498,25.5105311 19.1734481,25.6989843 18.7086849,25.8574627 L18.3766749,28.9985075 C18.3163842,29.5691422 17.8354277,30.0016618 17.2630273,30 Z M13.7717122,27.761194 L16.2573201,27.761194 L16.5617866,24.8835821 C16.6106907,24.4224854 16.9381104,24.0393477 17.3851117,23.9201493 C18.1716331,23.7098901 18.9266743,23.3954272 19.630273,22.9850746 C20.0313693,22.7507817 20.535227,22.789705 20.8957816,23.0828358 L23.1409429,24.9014925 L24.8985112,23.1395522 L23.0813896,20.8955224 C22.7889861,20.5340709 22.7501594,20.0289598 22.983871,19.6268657 C23.3923446,18.9219754 23.7050368,18.1655313 23.9136476,17.3776119 C24.0326484,16.9292647 24.4151986,16.6009729 24.8754342,16.5522388 L27.7451613,16.2462687 L27.7451613,13.7544776 L24.8754342,13.4485075 C24.4151986,13.3997734 24.0326484,13.0714816 23.9136476,12.6231343 C23.7050993,11.8349574 23.3924055,11.0782584 22.983871,10.3731343 C22.7501594,9.97104018 22.7889861,9.46592911 23.0813896,9.10447761 L24.8955335,6.85373134 L23.1379653,5.09179104 L20.892804,6.91044776 C20.5322494,7.20357861 20.0283917,7.24250187 19.6272953,7.00820896 C18.9240082,6.59901484 18.1694816,6.2855616 17.3836228,6.0761194 C16.9366216,5.95692099 16.6092019,5.57378325 16.5602978,5.11268657 L16.2588089,2.23880597 L13.7717122,2.23880597 L13.4672457,5.11641791 C13.4182345,5.57771986 13.0904694,5.96091522 12.6431762,6.07985075 C11.8578796,6.2902453 11.1040862,6.60470983 10.401737,7.01492537 C10.0006406,7.24921829 9.49678288,7.21029503 9.13622829,6.91716418 L6.89330025,5.09552239 L5.13647643,6.85746269 L6.95136476,9.10820896 C7.24353021,9.46982116 7.28205982,9.97492326 7.04813896,10.3768657 C6.64028494,11.0820632 6.3276279,11.8384222 6.11836228,12.6261194 C5.99945965,13.0742326 5.61727263,13.4024668 5.1573201,13.4514925 L2.28684864,13.7574627 L2.28684864,16.2485075 L5.1573201,16.5544776 C5.61727263,16.6035034 5.99945965,16.9317376 6.11836228,17.3798507 C6.32757909,18.1667381 6.63998049,18.9223315 7.04739454,19.6268657 C7.28131541,20.0288081 7.2427858,20.5339102 6.95062035,20.8955224 L5.13647643,23.1425373 L6.89404467,24.9044776 L9.13995037,23.0858209 C9.50050496,22.79269 10.0043627,22.7537668 10.4054591,22.9880597 C11.1084301,23.3973604 11.8627255,23.7108216 12.6483871,23.9201493 C13.0956804,24.0390848 13.4234454,24.4222801 13.4724566,24.8835821 L13.7717122,27.761194 Z" id="Shape"></path>
                                <path d="M15.0156328,21.8179104 C11.2596452,21.8174983 8.21511056,18.7648333 8.21538463,14.9995025 C8.21565871,11.2341717 11.2606377,8.18195223 15.0166253,8.1820896 C18.7726128,8.18222696 21.8173697,11.2346692 21.8173697,15 C21.8132663,18.764014 18.7703072,21.8142088 15.0156328,21.8179104 Z M15.0156328,10.4208955 C12.4930355,10.4213077 10.4483612,12.471625 10.4486353,15.0004974 C10.4489093,17.5293698 12.494028,19.5792418 15.0166253,19.5791044 C17.5392226,19.5789671 19.5841191,17.5288724 19.5841191,15 C19.5812467,12.4719328 17.5374272,10.4233631 15.0156328,10.4208955 L15.0156328,10.4208955 Z" id="Shape"></path>
                            </g>
                        </g>
                    </g>
                </g>
            </g>
        </g>
    </g>
</svg>