<?xml version="1.0" encoding="UTF-8"?>
<svg width="389px" height="400px" viewBox="0 0 389 400" version="1.1" xmlns="http://www.w3.org/2000/svg" xmlns:xlink="http://www.w3.org/1999/xlink">
    <!-- Generator: Sketch 54.1 (76490) - https://sketchapp.com -->
    <title>3827998_business_management_pen_signature_icon</title>
    <desc>Created with Sketch.</desc>
    <g id="website" stroke="none" stroke-width="1" fill="none" fill-rule="evenodd">
        <g id="Artboard" transform="translate(-3285.000000, -2807.000000)" fill="#B9B9B9" fill-rule="nonzero">
            <g id="3827998_business_management_pen_signature_icon" transform="translate(3285.000000, 2807.000000)">
                <path d="M388.2,50 C388.190723,34.5566733 378.883703,20.6381117 364.615407,14.7294614 C350.347111,8.82081112 333.924719,12.0845549 323,23 L270,75.8 L197,3 C195.845597,1.60506783 194.320234,0.565047301 192.6,0 L191.2,0 L30,0 C13.4314575,-8.8817842e-15 0,13.4314575 0,30 L0,370 C0,386.568542 13.4314575,400 30,400 L250,400 C266.568542,400 280,386.568542 280,370 L280,174.2 L338.8,115.4 C345.138723,127.878872 342.804465,143.0113 333,153 L323,163 C321.066455,164.814667 319.969627,167.348282 319.969627,170 C319.969627,172.651718 321.066455,175.185333 323,177 C324.814667,178.933545 327.348282,180.030373 330,180.030373 C332.651718,180.030373 335.185333,178.933545 337,177 L347,167 C365.16857,149.207052 367.871495,120.910805 353.4,100 L377,76.2 C383.990211,69.2498899 388.006163,59.8554302 388.2,50 L388.2,50 Z M263,163 L263,163 L170,255.8 L144.2,230 L300,74.2 L325.8,100 L263,163 Z M124.6,301.2 L85.8,314.2 L98.8,275.4 L130,244.2 L155.8,270 L124.6,301.2 Z M200,34.2 L245.8,80 L200,80 L200,34.2 Z M260,370 C260,375.522847 255.522847,380 250,380 L30,380 C24.4771525,380 20,375.522847 20,370 L20,30 C20,24.4771525 24.4771525,20 30,20 L180,20 L180,90 C180,95.5228475 184.477153,100 190,100 L245.8,100 L83,263 C81.8444902,264.003754 81.0098345,265.325293 80.6,266.8 L60.6,326.8 C59.3102733,330.375315 60.2513501,334.374891 63,337 C64.8056067,338.942767 67.3479228,340.032331 70,340 C71.0581028,340.191152 72.1418972,340.191152 73.2,340 L133.2,320 C134.674707,319.590165 135.996246,318.75551 137,317.6 L260,194.2 L260,370 Z M363,63 L340,85.8 L314.2,60 L337,37 C344.257899,30.3098409 355.501811,30.5385815 362.481615,37.5183855 C369.461418,44.4981895 369.690159,55.742101 363,63 L363,63 Z" id="Shape"></path>
                <path d="M70,80 L130,80 C135.522847,80 140,75.5228475 140,70 C140,64.4771525 135.522847,60 130,60 L70,60 C64.4771525,60 60,64.4771525 60,70 C60,75.5228475 64.4771525,80 70,80 Z" id="Path"></path>
                <path d="M70,140 L150,140 C155.522847,140 160,135.522847 160,130 C160,124.477153 155.522847,120 150,120 L70,120 C64.4771525,120 60,124.477153 60,130 C60,135.522847 64.4771525,140 70,140 Z" id="Path"></path>
                <path d="M70,200 L90,200 C95.5228475,200 100,195.522847 100,190 C100,184.477153 95.5228475,180 90,180 L70,180 C64.4771525,180 60,184.477153 60,190 C60,195.522847 64.4771525,200 70,200 Z" id="Path"></path>
            </g>
        </g>
    </g>
</svg>