<?xml version="1.0" encoding="UTF-8"?>
<svg width="34px" height="34px" viewBox="0 0 34 34" version="1.1" xmlns="http://www.w3.org/2000/svg" xmlns:xlink="http://www.w3.org/1999/xlink">
    <!-- Generator: Sketch 54.1 (76490) - https://sketchapp.com -->
    <title>6611324_and_locations_maps_navigation_route_icon</title>
    <desc>Created with Sketch.</desc>
    <g id="final" stroke="none" stroke-width="1" fill="none" fill-rule="evenodd" stroke-linecap="round" stroke-linejoin="round">
        <g id="pre_delivery" transform="translate(-30.000000, -748.000000)" stroke="#A6A6A6" stroke-width="2.30769231">
            <g id="Navbar" transform="translate(0.000000, 716.000000)">
                <g id="Group-3" transform="translate(0.000000, 13.000000)">
                    <g id="Group-2">
                        <g id="6611324_and_locations_maps_navigation_route_icon" transform="translate(32.000000, 21.000000)">
                            <path d="M11.5384615,5.65384615 C11.5384615,10.6153846 5.76923077,15 5.76923077,15 C5.76923077,15 0,10.6153846 0,5.65384615 C0,2.53846154 2.53846154,0 5.76923077,0 C9,0 11.5384615,2.53846154 11.5384615,5.65384615 Z" id="Path"></path>
                            <circle id="Oval" cx="5.76923077" cy="5.65384615" r="1.15384615"></circle>
                            <path d="M30,20.6538462 C30,25.6153846 24.2307692,30 24.2307692,30 C24.2307692,30 18.4615385,25.6153846 18.4615385,20.6538462 C18.4615385,17.5384615 21,15 24.2307692,15 C27.4615385,15 30,17.5384615 30,20.6538462 Z" id="Path"></path>
                            <circle id="Oval" cx="24.2307692" cy="20.6538462" r="1.15384615"></circle>
                            <path d="M10.8461538,3 C12.1153846,2.53846154 13.5,2.30769231 15,2.30769231 C20.7692308,2.30769231 25.7307692,6.23076923 27.2307692,11.5384615" id="Path"></path>
                            <path d="M20.6538462,26.3076923 C18.9230769,27.2307692 17.0769231,27.6923077 15,27.6923077 C9.23076923,27.6923077 4.26923077,23.7692308 2.76923077,18.4615385" id="Path"></path>
                        </g>
                    </g>
                </g>
            </g>
        </g>
    </g>
</svg>